# xmcd
#
# Track frame offsets: 
#        150
#        14946
#        25841
#        39127
#        50983
#        62745
#        73343
#        85621
#        98022
#        107047
#        122218
#        142655
#        158029
#        169984
#        180582
#        194908
#        209495
#        223206
#        236388
#        247973
#        261175
#        268145
#
# Disc length: 3775 seconds
#
# Revision: 1
# Processed by: cddbd v1.5.2PL0 Copyright (c) Steve Scherf et al.
# Submitted via: ExactAudioCopy v1.0b3
#
DISCID=4b0ebd16
DTITLE=Various Artist - JAZZ VOCAL The Best Of Best [CD2]
DYEAR=2010
DGENRE=Jazz
TTITLE0=Sarah Vaughan - Summertime
TTITLE1=Chet Baker - Like Someone In Love
TTITLE2=Dinah Washington - I'm Getting Old Before My Time
TTITLE3=Billy Eckstine - I Hear A Rhapsody
TTITLE4=Ella Fitzgerald - Sing Me A Swing Song
TTITLE5=Peggy Lee - Fools Rush In
TTITLE6=Louis Armstrong - When The Saint's Go Marching In
TTITLE7=Dinah Washington - I Can't Get Started With You
TTITLE8=Mel Torme - I Let A Song Go Out Of My Heart
TTITLE9=Peggy Lee - It Ain't Necessarily So
TTITLE10=Ella Fitzgerald and Louis Armstrong - A Foggy Day
TTITLE11=Nat King Cole - Embraceable You
TTITLE12=Peggy Lee - I'm Confessin'
TTITLE13=Nat King Cole - Too Marvellous For Words
TTITLE14=Billie Holiday - Strange Fruit
TTITLE15=Cab Calloway - Minnie The Moocher
TTITLE16=Sarah Vaughan - Just Friends
TTITLE17=Peggy Lee - He's Just My Kind
TTITLE18=Mel Torme - I Surrender Dear
TTITLE19=Sarah Vaughan - I Cover The Waterfront
TTITLE20=Nat King Cole - Exactly Like You
TTITLE21=Billie Holiday - These Foolish Things
EXTD=YEAR: 2010
EXTT0=
EXTT1=
EXTT2=
EXTT3=
EXTT4=
EXTT5=
EXTT6=
EXTT7=
EXTT8=
EXTT9=
EXTT10=
EXTT11=
EXTT12=
EXTT13=
EXTT14=
EXTT15=
EXTT16=
EXTT17=
EXTT18=
EXTT19=
EXTT20=
EXTT21=
PLAYORDER=
